M48
; DRILL file KiCad 10.0.0-rc1.1 date 2026-02-26T19:56:54
; FORMAT={-:-/ absolute / metric / decimal}
; #@! TF.CreationDate,2026-02-26T19:56:54+05:30
; #@! TF.GenerationSoftware,Kicad,Pcbnew,10.0.0-rc1.1
; #@! TF.FileFunction,Plated,1,2,PTH
FMAT,2
METRIC
; #@! TA.AperFunction,Plated,PTH,ComponentDrill
T1C0.730
; #@! TA.AperFunction,Plated,PTH,ComponentDrill
T2C0.800
; #@! TA.AperFunction,Plated,PTH,ComponentDrill
T3C1.000
; #@! TA.AperFunction,Plated,PTH,ComponentDrill
T4C1.100
%
G90
G05
T1
X125.46Y-76.5
X125.46Y-84.12
X128.0Y-76.5
X128.0Y-84.12
X130.54Y-76.5
X130.54Y-84.12
T2
X125.0Y-88.0
X125.0Y-98.16
X134.84Y-71.5
X145.0Y-71.5
X163.42Y-112.0
X163.42Y-114.54
X163.42Y-117.08
X163.42Y-119.62
X171.04Y-112.0
X171.04Y-114.54
X171.04Y-117.08
X171.04Y-119.62
T3
X148.06Y-89.0
X148.06Y-104.24
X150.5Y-71.5
X150.5Y-74.04
X150.5Y-76.58
X150.5Y-79.12
X150.5Y-81.66
X150.6Y-89.0
X150.6Y-104.24
X153.14Y-89.0
X153.14Y-104.24
X155.68Y-89.0
X155.68Y-104.24
X158.22Y-89.0
X158.22Y-104.24
X160.76Y-89.0
X160.76Y-104.24
X163.3Y-89.0
X163.3Y-104.24
X165.84Y-89.0
X165.84Y-104.24
X168.38Y-89.0
X168.38Y-104.24
X170.92Y-89.0
X170.92Y-104.24
X173.46Y-89.0
X173.46Y-104.24
X176.0Y-89.0
X176.0Y-104.24
X178.5Y-71.5
X178.5Y-74.04
X178.5Y-76.58
X178.5Y-79.12
X178.5Y-81.66
X178.54Y-89.0
X178.54Y-104.24
X181.08Y-89.0
X181.08Y-104.24
X183.62Y-89.0
X183.62Y-104.24
X190.0Y-112.0
X190.0Y-114.54
X190.0Y-117.08
T4
X125.42Y-111.0
X125.46Y-120.5
X127.96Y-111.0
X130.5Y-111.0
X130.54Y-120.5
X192.5Y-75.5
X192.5Y-80.58
M30
