%TF.GenerationSoftware,KiCad,Pcbnew,10.0.0-rc1.1*%
%TF.CreationDate,2026-02-26T19:56:12+05:30*%
%TF.ProjectId,ESLS_Nano,45534c53-5f4e-4616-9e6f-2e6b69636164,rev?*%
%TF.SameCoordinates,Original*%
%TF.FileFunction,Copper,L2,Bot*%
%TF.FilePolarity,Positive*%
%FSLAX46Y46*%
G04 Gerber Fmt 4.6, Leading zero omitted, Abs format (unit mm)*
G04 Created by KiCad (PCBNEW 10.0.0-rc1.1) date 2026-02-26 19:56:12*
%MOMM*%
%LPD*%
G01*
G04 APERTURE LIST*
G04 Aperture macros list*
%AMRoundRect*
0 Rectangle with rounded corners*
0 $1 Rounding radius*
0 $2 $3 $4 $5 $6 $7 $8 $9 X,Y pos of 4 corners*
0 Add a 4 corners polygon primitive as box body*
4,1,4,$2,$3,$4,$5,$6,$7,$8,$9,$2,$3,0*
0 Add four circle primitives for the rounded corners*
1,1,$1+$1,$2,$3*
1,1,$1+$1,$4,$5*
1,1,$1+$1,$6,$7*
1,1,$1+$1,$8,$9*
0 Add four rect primitives between the rounded corners*
20,1,$1+$1,$2,$3,$4,$5,0*
20,1,$1+$1,$4,$5,$6,$7,0*
20,1,$1+$1,$6,$7,$8,$9,0*
20,1,$1+$1,$8,$9,$2,$3,0*%
G04 Aperture macros list end*
%TA.AperFunction,ComponentPad*%
%ADD10C,1.600000*%
%TD*%
%TA.AperFunction,ComponentPad*%
%ADD11C,1.700000*%
%TD*%
%TA.AperFunction,ComponentPad*%
%ADD12R,1.700000X1.700000*%
%TD*%
%TA.AperFunction,ComponentPad*%
%ADD13R,1.600000X1.600000*%
%TD*%
%TA.AperFunction,ComponentPad*%
%ADD14O,1.600000X1.600000*%
%TD*%
%TA.AperFunction,ComponentPad*%
%ADD15R,1.905000X2.000000*%
%TD*%
%TA.AperFunction,ComponentPad*%
%ADD16O,1.905000X2.000000*%
%TD*%
%TA.AperFunction,ComponentPad*%
%ADD17R,1.130000X1.130000*%
%TD*%
%TA.AperFunction,ComponentPad*%
%ADD18C,1.130000*%
%TD*%
%TA.AperFunction,ComponentPad*%
%ADD19R,1.650000X1.650000*%
%TD*%
%TA.AperFunction,ComponentPad*%
%ADD20C,1.650000*%
%TD*%
%TA.AperFunction,ComponentPad*%
%ADD21RoundRect,0.250000X-0.550000X-0.550000X0.550000X-0.550000X0.550000X0.550000X-0.550000X0.550000X0*%
%TD*%
%ADD22C,1.600000*%
%ADD23C,1.700000*%
%ADD24R,1.700000X1.700000*%
%ADD25R,1.600000X1.600000*%
%ADD26O,1.600000X1.600000*%
%ADD27R,1.905000X2.000000*%
%ADD28O,1.905000X2.000000*%
%ADD29RoundRect,0.102000X-0.565000X0.565000X-0.565000X-0.565000X0.565000X-0.565000X0.565000X0.565000X0*%
%ADD30C,1.334000*%
%ADD31RoundRect,0.102000X0.825000X-0.825000X0.825000X0.825000X-0.825000X0.825000X-0.825000X-0.825000X0*%
%ADD32C,1.854000*%
%ADD33RoundRect,0.102000X0.825000X0.825000X-0.825000X0.825000X-0.825000X-0.825000X0.825000X-0.825000X0*%
%ADD34RoundRect,0.250000X-0.550000X-0.550000X0.550000X-0.550000X0.550000X0.550000X-0.550000X0.550000X0*%
%TA.AperFunction,Conductor*%
%ADD35C,0.200000*%
%TD*%
%ADD36C,0.100000*%
%ADD37C,0.150000*%
%ADD38C,0.120000*%
%ADD39C,0.127000*%
%ADD40C,0.240000*%
%TA.AperFunction,Profile*%
%ADD41C,0.050000*%
%TD*%
G04 APERTURE END LIST*
D10*
%TO.P,R1,2*%
%TO.N,Net-(J1-Pin_2)*%
X125000000Y-98160000D03*
%TO.P,R1,1*%
%TO.N,Net-(R1-Pad1)*%
X125000000Y-88000000D03*
%TD*%
%TO.P,R2,2*%
%TO.N,Net-(R2-Pad2)*%
X134840000Y-71500000D03*
%TO.P,R2,1*%
%TO.N,Net-(A1-D11)*%
X145000000Y-71500000D03*
%TD*%
D11*
%TO.P,J4,3,Pin_3_3*%
%TO.N,Net-(A1-A0)*%
X190000000Y-117080000D03*
%TO.P,J4,2,Pin_2_2*%
%TO.N,GND*%
X190000000Y-114540000D03*
D12*
%TO.P,J4,1,Pin_1_1*%
%TO.N,Net-(A1-+5V)*%
X190000000Y-112000000D03*
%TD*%
%TO.P,J3,1,Pin_1_1*%
%TO.N,GND*%
X178500000Y-81660000D03*
D11*
%TO.P,J3,2,Pin_2_2*%
X178500000Y-79120000D03*
%TO.P,J3,3,Pin_3_3*%
X178500000Y-76580000D03*
%TO.P,J3,4,Pin_4_4*%
X178500000Y-74040000D03*
%TO.P,J3,5,Pin_5_5*%
X178500000Y-71500000D03*
%TD*%
D13*
%TO.P,A1,1,D1/TX_1*%
%TO.N,unconnected-(A1-D1{slash}TX-Pad1)*%
X183620000Y-89000000D03*
D14*
%TO.P,A1,2,D0/RX_2*%
%TO.N,unconnected-(A1-D0{slash}RX-Pad2)*%
X181080000Y-89000000D03*
%TO.P,A1,3,~{RESET}_3*%
%TO.N,unconnected-(A1-~{RESET}-Pad3)*%
X178540000Y-89000000D03*
%TO.P,A1,4,GND_4*%
%TO.N,GND*%
X176000000Y-89000000D03*
%TO.P,A1,5,D2_5*%
%TO.N,unconnected-(A1-D2-Pad5)*%
X173460000Y-89000000D03*
%TO.P,A1,6,D3_6*%
%TO.N,unconnected-(A1-D3-Pad6)*%
X170920000Y-89000000D03*
%TO.P,A1,7,D4_7*%
%TO.N,unconnected-(A1-D4-Pad7)*%
X168380000Y-89000000D03*
%TO.P,A1,8,D5_8*%
%TO.N,unconnected-(A1-D5-Pad8)*%
X165840000Y-89000000D03*
%TO.P,A1,9,D6_9*%
%TO.N,unconnected-(A1-D6-Pad9)*%
X163300000Y-89000000D03*
%TO.P,A1,10,D7_10*%
%TO.N,unconnected-(A1-D7-Pad10)*%
X160760000Y-89000000D03*
%TO.P,A1,11,D8_11*%
%TO.N,unconnected-(A1-D8-Pad11)*%
X158220000Y-89000000D03*
%TO.P,A1,12,D9_12*%
%TO.N,unconnected-(A1-D9-Pad12)*%
X155680000Y-89000000D03*
%TO.P,A1,13,D10_13*%
%TO.N,unconnected-(A1-D10-Pad13)*%
X153140000Y-89000000D03*
%TO.P,A1,14,D11_14*%
%TO.N,Net-(A1-D11)*%
X150600000Y-89000000D03*
%TO.P,A1,15,D12_15*%
%TO.N,unconnected-(A1-D12-Pad15)*%
X148060000Y-89000000D03*
%TO.P,A1,16,D13_16*%
%TO.N,unconnected-(A1-D13-Pad16)*%
X148060000Y-104240000D03*
%TO.P,A1,17,3V3_17*%
%TO.N,unconnected-(A1-3V3-Pad17)*%
X150600000Y-104240000D03*
%TO.P,A1,18,AREF_18*%
%TO.N,unconnected-(A1-AREF-Pad18)*%
X153140000Y-104240000D03*
%TO.P,A1,19,A0_19*%
%TO.N,Net-(A1-A0)*%
X155680000Y-104240000D03*
%TO.P,A1,20,A1_20*%
%TO.N,unconnected-(A1-A1-Pad20)*%
X158220000Y-104240000D03*
%TO.P,A1,21,A2_21*%
%TO.N,unconnected-(A1-A2-Pad21)*%
X160760000Y-104240000D03*
%TO.P,A1,22,A3_22*%
%TO.N,unconnected-(A1-A3-Pad22)*%
X163300000Y-104240000D03*
%TO.P,A1,23,A4_23*%
%TO.N,Net-(A1-A4)*%
X165840000Y-104240000D03*
%TO.P,A1,24,A5_24*%
%TO.N,Net-(A1-A5)*%
X168380000Y-104240000D03*
%TO.P,A1,25,A6_25*%
%TO.N,unconnected-(A1-A6-Pad25)*%
X170920000Y-104240000D03*
%TO.P,A1,26,A7_26*%
%TO.N,unconnected-(A1-A7-Pad26)*%
X173460000Y-104240000D03*
%TO.P,A1,27,+5V_27*%
%TO.N,Net-(A1-+5V)*%
X176000000Y-104240000D03*
%TO.P,A1,28,~{RESET}_28*%
%TO.N,unconnected-(A1-~{RESET}-Pad28)*%
X178540000Y-104240000D03*
%TO.P,A1,29,GND_29*%
%TO.N,GND*%
X181080000Y-104240000D03*
%TO.P,A1,30,VIN_30*%
%TO.N,Net-(A1-VIN)*%
X183620000Y-104240000D03*
%TD*%
D15*
%TO.P,Q1,1,A1_1*%
%TO.N,Net-(J1-Pin_1)*%
X125420000Y-111000000D03*
D16*
%TO.P,Q1,2,A2_2*%
%TO.N,Net-(J1-Pin_2)*%
X127960000Y-111000000D03*
%TO.P,Q1,3,G_3*%
X130500000Y-111000000D03*
%TD*%
D17*
%TO.P,U2,1*%
%TO.N,Net-(R2-Pad2)*%
X130540000Y-76500000D03*
D18*
%TO.P,U2,2*%
%TO.N,unconnected-(U2-Pad2)*%
X128000000Y-76500000D03*
%TO.P,U2,3,NC_3*%
%TO.N,unconnected-(U2-NC-Pad3)*%
X125460000Y-76500000D03*
%TO.P,U2,4*%
%TO.N,Net-(R1-Pad1)*%
X125460000Y-84120000D03*
%TO.P,U2,5,NC_5*%
%TO.N,unconnected-(U2-NC-Pad5)*%
X128000000Y-84120000D03*
%TO.P,U2,6*%
%TO.N,Net-(J1-Pin_1)*%
X130540000Y-84120000D03*
%TD*%
D12*
%TO.P,J2,1,Pin_1_1*%
%TO.N,Net-(A1-D11)*%
X150500000Y-71500000D03*
D11*
%TO.P,J2,2,Pin_2_2*%
X150500000Y-74040000D03*
%TO.P,J2,3,Pin_3_3*%
X150500000Y-76580000D03*
%TO.P,J2,4,Pin_4_4*%
X150500000Y-79120000D03*
%TO.P,J2,5,Pin_5_5*%
X150500000Y-81660000D03*
%TD*%
D19*
%TO.P,J5,1,Pin_1_1*%
%TO.N,GND*%
X192500000Y-80580000D03*
D20*
%TO.P,J5,2,Pin_2_2*%
%TO.N,Net-(A1-VIN)*%
X192500000Y-75500000D03*
%TD*%
D19*
%TO.P,J1,1,Pin_1_1*%
%TO.N,Net-(J1-Pin_1)*%
X130540000Y-120500000D03*
D20*
%TO.P,J1,2,Pin_2_2*%
%TO.N,Net-(J1-Pin_2)*%
X125460000Y-120500000D03*
%TD*%
D21*
%TO.P,U1,1,X1_1*%
%TO.N,unconnected-(U1-X1-Pad1)*%
X163420000Y-112000000D03*
D10*
%TO.P,U1,2,X2_2*%
%TO.N,unconnected-(U1-X2-Pad2)*%
X163420000Y-114540000D03*
%TO.P,U1,3,VBAT_3*%
%TO.N,unconnected-(U1-VBAT-Pad3)*%
X163420000Y-117080000D03*
%TO.P,U1,4,GND_4*%
%TO.N,GND*%
X163420000Y-119620000D03*
%TO.P,U1,5,SDA_5*%
%TO.N,Net-(A1-A4)*%
X171040000Y-119620000D03*
%TO.P,U1,6,SCL_6*%
%TO.N,Net-(A1-A5)*%
X171040000Y-117080000D03*
%TO.P,U1,7,SQW/OUT_7*%
%TO.N,unconnected-(U1-SQW{slash}OUT-Pad7)*%
X171040000Y-114540000D03*
%TO.P,U1,8,VCC_8*%
%TO.N,Net-(A1-+5V)*%
X171040000Y-112000000D03*
%TD*%
D22*
%TO.C,R1*%
X125000000Y-98160000D03*
X125000000Y-88000000D03*
%TD*%
%TO.C,R2*%
X134840000Y-71500000D03*
X145000000Y-71500000D03*
%TD*%
D23*
%TO.C,J4*%
X190000000Y-117080000D03*
X190000000Y-114540000D03*
D24*
X190000000Y-112000000D03*
%TD*%
%TO.C,J3*%
X178500000Y-81660000D03*
D23*
X178500000Y-79120000D03*
X178500000Y-76580000D03*
X178500000Y-74040000D03*
X178500000Y-71500000D03*
%TD*%
D25*
%TO.C,A1*%
X183620000Y-89000000D03*
D26*
X181080000Y-89000000D03*
X178540000Y-89000000D03*
X176000000Y-89000000D03*
X173460000Y-89000000D03*
X170920000Y-89000000D03*
X168380000Y-89000000D03*
X165840000Y-89000000D03*
X163300000Y-89000000D03*
X160760000Y-89000000D03*
X158220000Y-89000000D03*
X155680000Y-89000000D03*
X153140000Y-89000000D03*
X150600000Y-89000000D03*
X148060000Y-89000000D03*
X148060000Y-104240000D03*
X150600000Y-104240000D03*
X153140000Y-104240000D03*
X155680000Y-104240000D03*
X158220000Y-104240000D03*
X160760000Y-104240000D03*
X163300000Y-104240000D03*
X165840000Y-104240000D03*
X168380000Y-104240000D03*
X170920000Y-104240000D03*
X173460000Y-104240000D03*
X176000000Y-104240000D03*
X178540000Y-104240000D03*
X181080000Y-104240000D03*
X183620000Y-104240000D03*
%TD*%
D27*
%TO.C,Q1*%
X125420000Y-111000000D03*
D28*
X127960000Y-111000000D03*
X130500000Y-111000000D03*
%TD*%
D29*
%TO.C,U2*%
X130540000Y-76500000D03*
D30*
X128000000Y-76500000D03*
X125460000Y-76500000D03*
X125460000Y-84120000D03*
X128000000Y-84120000D03*
X130540000Y-84120000D03*
%TD*%
D24*
%TO.C,J2*%
X150500000Y-71500000D03*
D23*
X150500000Y-74040000D03*
X150500000Y-76580000D03*
X150500000Y-79120000D03*
X150500000Y-81660000D03*
%TD*%
D31*
%TO.C,J5*%
X192500000Y-80580000D03*
D32*
X192500000Y-75500000D03*
%TD*%
D33*
%TO.C,J1*%
X130540000Y-120500000D03*
D32*
X125460000Y-120500000D03*
%TD*%
D34*
%TO.C,U1*%
X163420000Y-112000000D03*
D22*
X163420000Y-114540000D03*
X163420000Y-117080000D03*
X163420000Y-119620000D03*
X171040000Y-119620000D03*
X171040000Y-117080000D03*
X171040000Y-114540000D03*
X171040000Y-112000000D03*
%TD*%
D10*
%TO.P,R1,2*%
%TO.N,Net-(J1-Pin_2)*%
X125000000Y-98160000D03*
%TO.P,R1,1*%
%TO.N,Net-(R1-Pad1)*%
X125000000Y-88000000D03*
%TD*%
%TO.P,R2,2*%
%TO.N,Net-(R2-Pad2)*%
X134840000Y-71500000D03*
%TO.P,R2,1*%
%TO.N,Net-(A1-D11)*%
X145000000Y-71500000D03*
%TD*%
D11*
%TO.P,J4,3,Pin_3_3*%
%TO.N,Net-(A1-A0)*%
X190000000Y-117080000D03*
%TO.P,J4,2,Pin_2_2*%
%TO.N,GND*%
X190000000Y-114540000D03*
D12*
%TO.P,J4,1,Pin_1_1*%
%TO.N,Net-(A1-+5V)*%
X190000000Y-112000000D03*
%TD*%
%TO.P,J3,1,Pin_1_1*%
%TO.N,GND*%
X178500000Y-81660000D03*
D11*
%TO.P,J3,2,Pin_2_2*%
X178500000Y-79120000D03*
%TO.P,J3,3,Pin_3_3*%
X178500000Y-76580000D03*
%TO.P,J3,4,Pin_4_4*%
X178500000Y-74040000D03*
%TO.P,J3,5,Pin_5_5*%
X178500000Y-71500000D03*
%TD*%
D13*
%TO.P,A1,1,D1/TX_1*%
%TO.N,unconnected-(A1-D1{slash}TX-Pad1)*%
X183620000Y-89000000D03*
D14*
%TO.P,A1,2,D0/RX_2*%
%TO.N,unconnected-(A1-D0{slash}RX-Pad2)*%
X181080000Y-89000000D03*
%TO.P,A1,3,~{RESET}_3*%
%TO.N,unconnected-(A1-~{RESET}-Pad3)*%
X178540000Y-89000000D03*
%TO.P,A1,4,GND_4*%
%TO.N,GND*%
X176000000Y-89000000D03*
%TO.P,A1,5,D2_5*%
%TO.N,unconnected-(A1-D2-Pad5)*%
X173460000Y-89000000D03*
%TO.P,A1,6,D3_6*%
%TO.N,unconnected-(A1-D3-Pad6)*%
X170920000Y-89000000D03*
%TO.P,A1,7,D4_7*%
%TO.N,unconnected-(A1-D4-Pad7)*%
X168380000Y-89000000D03*
%TO.P,A1,8,D5_8*%
%TO.N,unconnected-(A1-D5-Pad8)*%
X165840000Y-89000000D03*
%TO.P,A1,9,D6_9*%
%TO.N,unconnected-(A1-D6-Pad9)*%
X163300000Y-89000000D03*
%TO.P,A1,10,D7_10*%
%TO.N,unconnected-(A1-D7-Pad10)*%
X160760000Y-89000000D03*
%TO.P,A1,11,D8_11*%
%TO.N,unconnected-(A1-D8-Pad11)*%
X158220000Y-89000000D03*
%TO.P,A1,12,D9_12*%
%TO.N,unconnected-(A1-D9-Pad12)*%
X155680000Y-89000000D03*
%TO.P,A1,13,D10_13*%
%TO.N,unconnected-(A1-D10-Pad13)*%
X153140000Y-89000000D03*
%TO.P,A1,14,D11_14*%
%TO.N,Net-(A1-D11)*%
X150600000Y-89000000D03*
%TO.P,A1,15,D12_15*%
%TO.N,unconnected-(A1-D12-Pad15)*%
X148060000Y-89000000D03*
%TO.P,A1,16,D13_16*%
%TO.N,unconnected-(A1-D13-Pad16)*%
X148060000Y-104240000D03*
%TO.P,A1,17,3V3_17*%
%TO.N,unconnected-(A1-3V3-Pad17)*%
X150600000Y-104240000D03*
%TO.P,A1,18,AREF_18*%
%TO.N,unconnected-(A1-AREF-Pad18)*%
X153140000Y-104240000D03*
%TO.P,A1,19,A0_19*%
%TO.N,Net-(A1-A0)*%
X155680000Y-104240000D03*
%TO.P,A1,20,A1_20*%
%TO.N,unconnected-(A1-A1-Pad20)*%
X158220000Y-104240000D03*
%TO.P,A1,21,A2_21*%
%TO.N,unconnected-(A1-A2-Pad21)*%
X160760000Y-104240000D03*
%TO.P,A1,22,A3_22*%
%TO.N,unconnected-(A1-A3-Pad22)*%
X163300000Y-104240000D03*
%TO.P,A1,23,A4_23*%
%TO.N,Net-(A1-A4)*%
X165840000Y-104240000D03*
%TO.P,A1,24,A5_24*%
%TO.N,Net-(A1-A5)*%
X168380000Y-104240000D03*
%TO.P,A1,25,A6_25*%
%TO.N,unconnected-(A1-A6-Pad25)*%
X170920000Y-104240000D03*
%TO.P,A1,26,A7_26*%
%TO.N,unconnected-(A1-A7-Pad26)*%
X173460000Y-104240000D03*
%TO.P,A1,27,+5V_27*%
%TO.N,Net-(A1-+5V)*%
X176000000Y-104240000D03*
%TO.P,A1,28,~{RESET}_28*%
%TO.N,unconnected-(A1-~{RESET}-Pad28)*%
X178540000Y-104240000D03*
%TO.P,A1,29,GND_29*%
%TO.N,GND*%
X181080000Y-104240000D03*
%TO.P,A1,30,VIN_30*%
%TO.N,Net-(A1-VIN)*%
X183620000Y-104240000D03*
%TD*%
D15*
%TO.P,Q1,1,A1_1*%
%TO.N,Net-(J1-Pin_1)*%
X125420000Y-111000000D03*
D16*
%TO.P,Q1,2,A2_2*%
%TO.N,Net-(J1-Pin_2)*%
X127960000Y-111000000D03*
%TO.P,Q1,3,G_3*%
X130500000Y-111000000D03*
%TD*%
D17*
%TO.P,U2,1*%
%TO.N,Net-(R2-Pad2)*%
X130540000Y-76500000D03*
D18*
%TO.P,U2,2*%
%TO.N,unconnected-(U2-Pad2)*%
X128000000Y-76500000D03*
%TO.P,U2,3,NC_3*%
%TO.N,unconnected-(U2-NC-Pad3)*%
X125460000Y-76500000D03*
%TO.P,U2,4*%
%TO.N,Net-(R1-Pad1)*%
X125460000Y-84120000D03*
%TO.P,U2,5,NC_5*%
%TO.N,unconnected-(U2-NC-Pad5)*%
X128000000Y-84120000D03*
%TO.P,U2,6*%
%TO.N,Net-(J1-Pin_1)*%
X130540000Y-84120000D03*
%TD*%
D12*
%TO.P,J2,1,Pin_1_1*%
%TO.N,Net-(A1-D11)*%
X150500000Y-71500000D03*
D11*
%TO.P,J2,2,Pin_2_2*%
X150500000Y-74040000D03*
%TO.P,J2,3,Pin_3_3*%
X150500000Y-76580000D03*
%TO.P,J2,4,Pin_4_4*%
X150500000Y-79120000D03*
%TO.P,J2,5,Pin_5_5*%
X150500000Y-81660000D03*
%TD*%
D19*
%TO.P,J5,1,Pin_1_1*%
%TO.N,GND*%
X192500000Y-80580000D03*
D20*
%TO.P,J5,2,Pin_2_2*%
%TO.N,Net-(A1-VIN)*%
X192500000Y-75500000D03*
%TD*%
D19*
%TO.P,J1,1,Pin_1_1*%
%TO.N,Net-(J1-Pin_1)*%
X130540000Y-120500000D03*
D20*
%TO.P,J1,2,Pin_2_2*%
%TO.N,Net-(J1-Pin_2)*%
X125460000Y-120500000D03*
%TD*%
D21*
%TO.P,U1,1,X1_1*%
%TO.N,unconnected-(U1-X1-Pad1)*%
X163420000Y-112000000D03*
D10*
%TO.P,U1,2,X2_2*%
%TO.N,unconnected-(U1-X2-Pad2)*%
X163420000Y-114540000D03*
%TO.P,U1,3,VBAT_3*%
%TO.N,unconnected-(U1-VBAT-Pad3)*%
X163420000Y-117080000D03*
%TO.P,U1,4,GND_4*%
%TO.N,GND*%
X163420000Y-119620000D03*
%TO.P,U1,5,SDA_5*%
%TO.N,Net-(A1-A4)*%
X171040000Y-119620000D03*
%TO.P,U1,6,SCL_6*%
%TO.N,Net-(A1-A5)*%
X171040000Y-117080000D03*
%TO.P,U1,7,SQW/OUT_7*%
%TO.N,unconnected-(U1-SQW{slash}OUT-Pad7)*%
X171040000Y-114540000D03*
%TO.P,U1,8,VCC_8*%
%TO.N,Net-(A1-+5V)*%
X171040000Y-112000000D03*
%TD*%
%TO.N,GND*%
D35*
X195960000Y-114540000D02*
X190000000Y-114540000D01*
X196000000Y-114500000D02*
X195960000Y-114540000D01*
%TO.N,Net-(A1-VIN)*%
X195260000Y-104240000D02*
X183620000Y-104240000D01*
X195500000Y-104000000D02*
X195260000Y-104240000D01*
X195500000Y-75500000D02*
X195500000Y-104000000D01*
X192500000Y-75500000D02*
X195500000Y-75500000D01*
%TO.N,GND*%
X178500000Y-86500000D02*
X192500000Y-86500000D01*
X192500000Y-86500000D02*
X192500000Y-80580000D01*
X192500000Y-92000000D02*
X192500000Y-86500000D01*
X189920000Y-94580000D02*
X192500000Y-92000000D01*
X181080000Y-94580000D02*
X189920000Y-94580000D01*
X176000000Y-89500000D02*
X181080000Y-94580000D01*
X176000000Y-89000000D02*
X176000000Y-89500000D01*
X181080000Y-94580000D02*
X181080000Y-104240000D01*
X178500000Y-74040000D02*
X178500000Y-71500000D01*
X178500000Y-76580000D02*
X178500000Y-74040000D01*
X178500000Y-79120000D02*
X178500000Y-76580000D01*
X178500000Y-81660000D02*
X178500000Y-79120000D01*
X178500000Y-86500000D02*
X176000000Y-89000000D01*
X178500000Y-81660000D02*
X178500000Y-86500000D01*
%TO.N,Net-(J1-Pin_1)*%
X135000000Y-107920000D02*
X130540000Y-103460000D01*
X135000000Y-115000000D02*
X135000000Y-107920000D01*
X131000000Y-115000000D02*
X135000000Y-115000000D01*
X130540000Y-115460000D02*
X131000000Y-115000000D01*
X130540000Y-120500000D02*
X130540000Y-115460000D01*
%TO.N,Net-(J1-Pin_2)*%
X125460000Y-114460000D02*
X124980000Y-113980000D01*
X124980000Y-113980000D02*
X127960000Y-111000000D01*
X125460000Y-120500000D02*
X125460000Y-114460000D01*
X127960000Y-111000000D02*
X130500000Y-111000000D01*
%TO.N,Net-(J1-Pin_1)*%
X125420000Y-108580000D02*
X125420000Y-111000000D01*
X130540000Y-103460000D02*
X125420000Y-108580000D01*
X130540000Y-84120000D02*
X130540000Y-103460000D01*
%TO.N,Net-(J1-Pin_2)*%
X124960000Y-114000000D02*
X124980000Y-113980000D01*
X120500000Y-114000000D02*
X124960000Y-114000000D01*
X121840000Y-98160000D02*
X120000000Y-100000000D01*
X120000000Y-113500000D02*
X120500000Y-114000000D01*
X120000000Y-100000000D02*
X120000000Y-113500000D01*
X125000000Y-98160000D02*
X121840000Y-98160000D01*
%TO.N,Net-(R1-Pad1)*%
X125460000Y-87540000D02*
X125000000Y-88000000D01*
X125460000Y-84120000D02*
X125460000Y-87540000D01*
%TO.N,Net-(R2-Pad2)*%
X130540000Y-75800000D02*
X130540000Y-76500000D01*
X134840000Y-71500000D02*
X130540000Y-75800000D01*
%TO.N,Net-(A1-D11)*%
X150500000Y-71500000D02*
X145000000Y-71500000D01*
X150500000Y-74040000D02*
X150500000Y-71500000D01*
X150500000Y-76580000D02*
X150500000Y-74040000D01*
X150500000Y-79120000D02*
X150500000Y-76580000D01*
X150500000Y-81660000D02*
X150500000Y-79120000D01*
X150600000Y-81760000D02*
X150500000Y-81660000D01*
X150600000Y-89000000D02*
X150600000Y-81760000D01*
%TO.N,Net-(A1-A0)*%
X181080000Y-126000000D02*
X190000000Y-117080000D01*
X156000000Y-126000000D02*
X181080000Y-126000000D01*
X155680000Y-125680000D02*
X156000000Y-126000000D01*
X155680000Y-104240000D02*
X155680000Y-125680000D01*
%TO.N,GND*%
X196000000Y-107000000D02*
X196000000Y-114500000D01*
X180540000Y-124000000D02*
X190000000Y-114540000D01*
X160500000Y-124000000D02*
X180540000Y-124000000D01*
%TO.N,Net-(A1-+5V)*%
X176000000Y-112000000D02*
X190000000Y-112000000D01*
%TO.N,GND*%
X163420000Y-119620000D02*
X161380000Y-119620000D01*
X161380000Y-119620000D02*
X160500000Y-120500000D01*
X160500000Y-120500000D02*
X160500000Y-124000000D01*
%TO.N,Net-(A1-+5V)*%
X176000000Y-112000000D02*
X176000000Y-104240000D01*
X171040000Y-112000000D02*
X176000000Y-112000000D01*
%TO.N,Net-(A1-A5)*%
X168380000Y-114420000D02*
X168380000Y-104240000D01*
X171040000Y-117080000D02*
X168380000Y-114420000D01*
%TO.N,Net-(A1-A4)*%
X165840000Y-118840000D02*
X165840000Y-104240000D01*
X171040000Y-119620000D02*
X166620000Y-119620000D01*
X166620000Y-119620000D02*
X165840000Y-118840000D01*
%TO.N,GND*%
X181500000Y-107000000D02*
X196000000Y-107000000D01*
X181000000Y-106500000D02*
X181500000Y-107000000D01*
X181080000Y-106420000D02*
X181000000Y-106500000D01*
X181080000Y-104240000D02*
X181080000Y-106420000D01*
%TD*%
D22*
%TO.C,R1*%
X125000000Y-98160000D03*
X125000000Y-88000000D03*
%TD*%
%TO.C,R2*%
X134840000Y-71500000D03*
X145000000Y-71500000D03*
%TD*%
D23*
%TO.C,J4*%
X190000000Y-117080000D03*
X190000000Y-114540000D03*
D24*
X190000000Y-112000000D03*
%TD*%
%TO.C,J3*%
X178500000Y-81660000D03*
D23*
X178500000Y-79120000D03*
X178500000Y-76580000D03*
X178500000Y-74040000D03*
X178500000Y-71500000D03*
%TD*%
D25*
%TO.C,A1*%
X183620000Y-89000000D03*
D26*
X181080000Y-89000000D03*
X178540000Y-89000000D03*
X176000000Y-89000000D03*
X173460000Y-89000000D03*
X170920000Y-89000000D03*
X168380000Y-89000000D03*
X165840000Y-89000000D03*
X163300000Y-89000000D03*
X160760000Y-89000000D03*
X158220000Y-89000000D03*
X155680000Y-89000000D03*
X153140000Y-89000000D03*
X150600000Y-89000000D03*
X148060000Y-89000000D03*
X148060000Y-104240000D03*
X150600000Y-104240000D03*
X153140000Y-104240000D03*
X155680000Y-104240000D03*
X158220000Y-104240000D03*
X160760000Y-104240000D03*
X163300000Y-104240000D03*
X165840000Y-104240000D03*
X168380000Y-104240000D03*
X170920000Y-104240000D03*
X173460000Y-104240000D03*
X176000000Y-104240000D03*
X178540000Y-104240000D03*
X181080000Y-104240000D03*
X183620000Y-104240000D03*
%TD*%
D27*
%TO.C,Q1*%
X125420000Y-111000000D03*
D28*
X127960000Y-111000000D03*
X130500000Y-111000000D03*
%TD*%
D29*
%TO.C,U2*%
X130540000Y-76500000D03*
D30*
X128000000Y-76500000D03*
X125460000Y-76500000D03*
X125460000Y-84120000D03*
X128000000Y-84120000D03*
X130540000Y-84120000D03*
%TD*%
D24*
%TO.C,J2*%
X150500000Y-71500000D03*
D23*
X150500000Y-74040000D03*
X150500000Y-76580000D03*
X150500000Y-79120000D03*
X150500000Y-81660000D03*
%TD*%
D31*
%TO.C,J5*%
X192500000Y-80580000D03*
D32*
X192500000Y-75500000D03*
%TD*%
D33*
%TO.C,J1*%
X130540000Y-120500000D03*
D32*
X125460000Y-120500000D03*
%TD*%
D34*
%TO.C,U1*%
X163420000Y-112000000D03*
D22*
X163420000Y-114540000D03*
X163420000Y-117080000D03*
X163420000Y-119620000D03*
X171040000Y-119620000D03*
X171040000Y-117080000D03*
X171040000Y-114540000D03*
X171040000Y-112000000D03*
%TD*%
D36*
X183803884Y-128372419D02*
X183803884Y-127372419D01*
X183803884Y-127372419D02*
X184041979Y-127372419D01*
X184041979Y-127372419D02*
X184184836Y-127420038D01*
X184184836Y-127420038D02*
X184280074Y-127515276D01*
X184280074Y-127515276D02*
X184327693Y-127610514D01*
X184327693Y-127610514D02*
X184375312Y-127800990D01*
X184375312Y-127800990D02*
X184375312Y-127943847D01*
X184375312Y-127943847D02*
X184327693Y-128134323D01*
X184327693Y-128134323D02*
X184280074Y-128229561D01*
X184280074Y-128229561D02*
X184184836Y-128324800D01*
X184184836Y-128324800D02*
X184041979Y-128372419D01*
X184041979Y-128372419D02*
X183803884Y-128372419D01*
X185184836Y-128324800D02*
X185089598Y-128372419D01*
X185089598Y-128372419D02*
X184899122Y-128372419D01*
X184899122Y-128372419D02*
X184803884Y-128324800D01*
X184803884Y-128324800D02*
X184756265Y-128229561D01*
X184756265Y-128229561D02*
X184756265Y-127848609D01*
X184756265Y-127848609D02*
X184803884Y-127753371D01*
X184803884Y-127753371D02*
X184899122Y-127705752D01*
X184899122Y-127705752D02*
X185089598Y-127705752D01*
X185089598Y-127705752D02*
X185184836Y-127753371D01*
X185184836Y-127753371D02*
X185232455Y-127848609D01*
X185232455Y-127848609D02*
X185232455Y-127943847D01*
X185232455Y-127943847D02*
X184756265Y-128039085D01*
X185613408Y-128324800D02*
X185708646Y-128372419D01*
X185708646Y-128372419D02*
X185899122Y-128372419D01*
X185899122Y-128372419D02*
X185994360Y-128324800D01*
X185994360Y-128324800D02*
X186041979Y-128229561D01*
X186041979Y-128229561D02*
X186041979Y-128181942D01*
X186041979Y-128181942D02*
X185994360Y-128086704D01*
X185994360Y-128086704D02*
X185899122Y-128039085D01*
X185899122Y-128039085D02*
X185756265Y-128039085D01*
X185756265Y-128039085D02*
X185661027Y-127991466D01*
X185661027Y-127991466D02*
X185613408Y-127896228D01*
X185613408Y-127896228D02*
X185613408Y-127848609D01*
X185613408Y-127848609D02*
X185661027Y-127753371D01*
X185661027Y-127753371D02*
X185756265Y-127705752D01*
X185756265Y-127705752D02*
X185899122Y-127705752D01*
X185899122Y-127705752D02*
X185994360Y-127753371D01*
X186470551Y-128372419D02*
X186470551Y-127705752D01*
X186470551Y-127372419D02*
X186422932Y-127420038D01*
X186422932Y-127420038D02*
X186470551Y-127467657D01*
X186470551Y-127467657D02*
X186518170Y-127420038D01*
X186518170Y-127420038D02*
X186470551Y-127372419D01*
X186470551Y-127372419D02*
X186470551Y-127467657D01*
X187375312Y-127705752D02*
X187375312Y-128515276D01*
X187375312Y-128515276D02*
X187327693Y-128610514D01*
X187327693Y-128610514D02*
X187280074Y-128658133D01*
X187280074Y-128658133D02*
X187184836Y-128705752D01*
X187184836Y-128705752D02*
X187041979Y-128705752D01*
X187041979Y-128705752D02*
X186946741Y-128658133D01*
X187375312Y-128324800D02*
X187280074Y-128372419D01*
X187280074Y-128372419D02*
X187089598Y-128372419D01*
X187089598Y-128372419D02*
X186994360Y-128324800D01*
X186994360Y-128324800D02*
X186946741Y-128277180D01*
X186946741Y-128277180D02*
X186899122Y-128181942D01*
X186899122Y-128181942D02*
X186899122Y-127896228D01*
X186899122Y-127896228D02*
X186946741Y-127800990D01*
X186946741Y-127800990D02*
X186994360Y-127753371D01*
X186994360Y-127753371D02*
X187089598Y-127705752D01*
X187089598Y-127705752D02*
X187280074Y-127705752D01*
X187280074Y-127705752D02*
X187375312Y-127753371D01*
X187851503Y-127705752D02*
X187851503Y-128372419D01*
X187851503Y-127800990D02*
X187899122Y-127753371D01*
X187899122Y-127753371D02*
X187994360Y-127705752D01*
X187994360Y-127705752D02*
X188137217Y-127705752D01*
X188137217Y-127705752D02*
X188232455Y-127753371D01*
X188232455Y-127753371D02*
X188280074Y-127848609D01*
X188280074Y-127848609D02*
X188280074Y-128372419D01*
X189137217Y-128324800D02*
X189041979Y-128372419D01*
X189041979Y-128372419D02*
X188851503Y-128372419D01*
X188851503Y-128372419D02*
X188756265Y-128324800D01*
X188756265Y-128324800D02*
X188708646Y-128229561D01*
X188708646Y-128229561D02*
X188708646Y-127848609D01*
X188708646Y-127848609D02*
X188756265Y-127753371D01*
X188756265Y-127753371D02*
X188851503Y-127705752D01*
X188851503Y-127705752D02*
X189041979Y-127705752D01*
X189041979Y-127705752D02*
X189137217Y-127753371D01*
X189137217Y-127753371D02*
X189184836Y-127848609D01*
X189184836Y-127848609D02*
X189184836Y-127943847D01*
X189184836Y-127943847D02*
X188708646Y-128039085D01*
X190041979Y-128372419D02*
X190041979Y-127372419D01*
X190041979Y-128324800D02*
X189946741Y-128372419D01*
X189946741Y-128372419D02*
X189756265Y-128372419D01*
X189756265Y-128372419D02*
X189661027Y-128324800D01*
X189661027Y-128324800D02*
X189613408Y-128277180D01*
X189613408Y-128277180D02*
X189565789Y-128181942D01*
X189565789Y-128181942D02*
X189565789Y-127896228D01*
X189565789Y-127896228D02*
X189613408Y-127800990D01*
X189613408Y-127800990D02*
X189661027Y-127753371D01*
X189661027Y-127753371D02*
X189756265Y-127705752D01*
X189756265Y-127705752D02*
X189946741Y-127705752D01*
X189946741Y-127705752D02*
X190041979Y-127753371D01*
X191280075Y-128372419D02*
X191280075Y-127372419D01*
X191280075Y-127753371D02*
X191375313Y-127705752D01*
X191375313Y-127705752D02*
X191565789Y-127705752D01*
X191565789Y-127705752D02*
X191661027Y-127753371D01*
X191661027Y-127753371D02*
X191708646Y-127800990D01*
X191708646Y-127800990D02*
X191756265Y-127896228D01*
X191756265Y-127896228D02*
X191756265Y-128181942D01*
X191756265Y-128181942D02*
X191708646Y-128277180D01*
X191708646Y-128277180D02*
X191661027Y-128324800D01*
X191661027Y-128324800D02*
X191565789Y-128372419D01*
X191565789Y-128372419D02*
X191375313Y-128372419D01*
X191375313Y-128372419D02*
X191280075Y-128324800D01*
X192089599Y-127705752D02*
X192327694Y-128372419D01*
X192565789Y-127705752D02*
X192327694Y-128372419D01*
X192327694Y-128372419D02*
X192232456Y-128610514D01*
X192232456Y-128610514D02*
X192184837Y-128658133D01*
X192184837Y-128658133D02*
X192089599Y-128705752D01*
X194280075Y-128372419D02*
X193946742Y-127896228D01*
X193708647Y-128372419D02*
X193708647Y-127372419D01*
X193708647Y-127372419D02*
X194089599Y-127372419D01*
X194089599Y-127372419D02*
X194184837Y-127420038D01*
X194184837Y-127420038D02*
X194232456Y-127467657D01*
X194232456Y-127467657D02*
X194280075Y-127562895D01*
X194280075Y-127562895D02*
X194280075Y-127705752D01*
X194280075Y-127705752D02*
X194232456Y-127800990D01*
X194232456Y-127800990D02*
X194184837Y-127848609D01*
X194184837Y-127848609D02*
X194089599Y-127896228D01*
X194089599Y-127896228D02*
X193708647Y-127896228D01*
X194661028Y-128086704D02*
X195137218Y-128086704D01*
X194565790Y-128372419D02*
X194899123Y-127372419D01*
X194899123Y-127372419D02*
X195232456Y-128372419D01*
X195851504Y-127372419D02*
X195851504Y-128086704D01*
X195851504Y-128086704D02*
X195803885Y-128229561D01*
X195803885Y-128229561D02*
X195708647Y-128324800D01*
X195708647Y-128324800D02*
X195565790Y-128372419D01*
X195565790Y-128372419D02*
X195470552Y-128372419D01*
X197375314Y-127372419D02*
X197375314Y-128086704D01*
X197375314Y-128086704D02*
X197327695Y-128229561D01*
X197327695Y-128229561D02*
X197232457Y-128324800D01*
X197232457Y-128324800D02*
X197089600Y-128372419D01*
X197089600Y-128372419D02*
X196994362Y-128372419D01*
X197803886Y-128086704D02*
X198280076Y-128086704D01*
X197708648Y-128372419D02*
X198041981Y-127372419D01*
X198041981Y-127372419D02*
X198375314Y-128372419D01*
X198708648Y-128372419D02*
X198708648Y-127372419D01*
X198708648Y-127372419D02*
X199280076Y-128372419D01*
X199280076Y-128372419D02*
X199280076Y-127372419D01*
X200280076Y-127420038D02*
X200184838Y-127372419D01*
X200184838Y-127372419D02*
X200041981Y-127372419D01*
X200041981Y-127372419D02*
X199899124Y-127420038D01*
X199899124Y-127420038D02*
X199803886Y-127515276D01*
X199803886Y-127515276D02*
X199756267Y-127610514D01*
X199756267Y-127610514D02*
X199708648Y-127800990D01*
X199708648Y-127800990D02*
X199708648Y-127943847D01*
X199708648Y-127943847D02*
X199756267Y-128134323D01*
X199756267Y-128134323D02*
X199803886Y-128229561D01*
X199803886Y-128229561D02*
X199899124Y-128324800D01*
X199899124Y-128324800D02*
X200041981Y-128372419D01*
X200041981Y-128372419D02*
X200137219Y-128372419D01*
X200137219Y-128372419D02*
X200280076Y-128324800D01*
X200280076Y-128324800D02*
X200327695Y-128277180D01*
X200327695Y-128277180D02*
X200327695Y-127943847D01*
X200327695Y-127943847D02*
X200137219Y-127943847D01*
X200708648Y-128086704D02*
X201184838Y-128086704D01*
X200613410Y-128372419D02*
X200946743Y-127372419D01*
X200946743Y-127372419D02*
X201280076Y-128372419D01*
X201613410Y-128372419D02*
X201613410Y-127372419D01*
X201613410Y-127372419D02*
X201946743Y-128086704D01*
X201946743Y-128086704D02*
X202280076Y-127372419D01*
X202280076Y-127372419D02*
X202280076Y-128372419D01*
X202756267Y-128277180D02*
X202803886Y-128324800D01*
X202803886Y-128324800D02*
X202756267Y-128372419D01*
X202756267Y-128372419D02*
X202708648Y-128324800D01*
X202708648Y-128324800D02*
X202756267Y-128277180D01*
X202756267Y-128277180D02*
X202756267Y-128372419D01*
D37*
X127824819Y-93246666D02*
X127348628Y-93579999D01*
X127824819Y-93818094D02*
X126824819Y-93818094D01*
X126824819Y-93818094D02*
X126824819Y-93437142D01*
X126824819Y-93437142D02*
X126872438Y-93341904D01*
X126872438Y-93341904D02*
X126920057Y-93294285D01*
X126920057Y-93294285D02*
X127015295Y-93246666D01*
X127015295Y-93246666D02*
X127158152Y-93246666D01*
X127158152Y-93246666D02*
X127253390Y-93294285D01*
X127253390Y-93294285D02*
X127301009Y-93341904D01*
X127301009Y-93341904D02*
X127348628Y-93437142D01*
X127348628Y-93437142D02*
X127348628Y-93818094D01*
X127824819Y-92294285D02*
X127824819Y-92865713D01*
X127824819Y-92579999D02*
X126824819Y-92579999D01*
X126824819Y-92579999D02*
X126967676Y-92675237D01*
X126967676Y-92675237D02*
X127062914Y-92770475D01*
X127062914Y-92770475D02*
X127110533Y-92865713D01*
X139753333Y-74324819D02*
X139420000Y-73848628D01*
X139181905Y-74324819D02*
X139181905Y-73324819D01*
X139181905Y-73324819D02*
X139562857Y-73324819D01*
X139562857Y-73324819D02*
X139658095Y-73372438D01*
X139658095Y-73372438D02*
X139705714Y-73420057D01*
X139705714Y-73420057D02*
X139753333Y-73515295D01*
X139753333Y-73515295D02*
X139753333Y-73658152D01*
X139753333Y-73658152D02*
X139705714Y-73753390D01*
X139705714Y-73753390D02*
X139658095Y-73801009D01*
X139658095Y-73801009D02*
X139562857Y-73848628D01*
X139562857Y-73848628D02*
X139181905Y-73848628D01*
X140134286Y-73420057D02*
X140181905Y-73372438D01*
X140181905Y-73372438D02*
X140277143Y-73324819D01*
X140277143Y-73324819D02*
X140515238Y-73324819D01*
X140515238Y-73324819D02*
X140610476Y-73372438D01*
X140610476Y-73372438D02*
X140658095Y-73420057D01*
X140658095Y-73420057D02*
X140705714Y-73515295D01*
X140705714Y-73515295D02*
X140705714Y-73610533D01*
X140705714Y-73610533D02*
X140658095Y-73753390D01*
X140658095Y-73753390D02*
X140086667Y-74324819D01*
X140086667Y-74324819D02*
X140705714Y-74324819D01*
X189666666Y-108684819D02*
X189666666Y-109399104D01*
X189666666Y-109399104D02*
X189619047Y-109541961D01*
X189619047Y-109541961D02*
X189523809Y-109637200D01*
X189523809Y-109637200D02*
X189380952Y-109684819D01*
X189380952Y-109684819D02*
X189285714Y-109684819D01*
X190571428Y-109018152D02*
X190571428Y-109684819D01*
X190333333Y-108637200D02*
X190095238Y-109351485D01*
X190095238Y-109351485D02*
X190714285Y-109351485D01*
X176666666Y-83954819D02*
X176666666Y-84669104D01*
X176666666Y-84669104D02*
X176619047Y-84811961D01*
X176619047Y-84811961D02*
X176523809Y-84907200D01*
X176523809Y-84907200D02*
X176380952Y-84954819D01*
X176380952Y-84954819D02*
X176285714Y-84954819D01*
X177047619Y-83954819D02*
X177666666Y-83954819D01*
X177666666Y-83954819D02*
X177333333Y-84335771D01*
X177333333Y-84335771D02*
X177476190Y-84335771D01*
X177476190Y-84335771D02*
X177571428Y-84383390D01*
X177571428Y-84383390D02*
X177619047Y-84431009D01*
X177619047Y-84431009D02*
X177666666Y-84526247D01*
X177666666Y-84526247D02*
X177666666Y-84764342D01*
X177666666Y-84764342D02*
X177619047Y-84859580D01*
X177619047Y-84859580D02*
X177571428Y-84907200D01*
X177571428Y-84907200D02*
X177476190Y-84954819D01*
X177476190Y-84954819D02*
X177190476Y-84954819D01*
X177190476Y-84954819D02*
X177095238Y-84907200D01*
X177095238Y-84907200D02*
X177047619Y-84859580D01*
X188869104Y-97334285D02*
X188869104Y-96858095D01*
X189154819Y-97429523D02*
X188154819Y-97096190D01*
X188154819Y-97096190D02*
X189154819Y-96762857D01*
X189154819Y-95905714D02*
X189154819Y-96477142D01*
X189154819Y-96191428D02*
X188154819Y-96191428D01*
X188154819Y-96191428D02*
X188297676Y-96286666D01*
X188297676Y-96286666D02*
X188392914Y-96381904D01*
X188392914Y-96381904D02*
X188440533Y-96477142D01*
X148605180Y-95358095D02*
X147795657Y-95358095D01*
X147795657Y-95358095D02*
X147700419Y-95405714D01*
X147700419Y-95405714D02*
X147652800Y-95453333D01*
X147652800Y-95453333D02*
X147605180Y-95548571D01*
X147605180Y-95548571D02*
X147605180Y-95739047D01*
X147605180Y-95739047D02*
X147652800Y-95834285D01*
X147652800Y-95834285D02*
X147700419Y-95881904D01*
X147700419Y-95881904D02*
X147795657Y-95929523D01*
X147795657Y-95929523D02*
X148605180Y-95929523D01*
X147652800Y-96358095D02*
X147605180Y-96500952D01*
X147605180Y-96500952D02*
X147605180Y-96739047D01*
X147605180Y-96739047D02*
X147652800Y-96834285D01*
X147652800Y-96834285D02*
X147700419Y-96881904D01*
X147700419Y-96881904D02*
X147795657Y-96929523D01*
X147795657Y-96929523D02*
X147890895Y-96929523D01*
X147890895Y-96929523D02*
X147986133Y-96881904D01*
X147986133Y-96881904D02*
X148033752Y-96834285D01*
X148033752Y-96834285D02*
X148081371Y-96739047D01*
X148081371Y-96739047D02*
X148128990Y-96548571D01*
X148128990Y-96548571D02*
X148176609Y-96453333D01*
X148176609Y-96453333D02*
X148224228Y-96405714D01*
X148224228Y-96405714D02*
X148319466Y-96358095D01*
X148319466Y-96358095D02*
X148414704Y-96358095D01*
X148414704Y-96358095D02*
X148509942Y-96405714D01*
X148509942Y-96405714D02*
X148557561Y-96453333D01*
X148557561Y-96453333D02*
X148605180Y-96548571D01*
X148605180Y-96548571D02*
X148605180Y-96786666D01*
X148605180Y-96786666D02*
X148557561Y-96929523D01*
X148128990Y-97691428D02*
X148081371Y-97834285D01*
X148081371Y-97834285D02*
X148033752Y-97881904D01*
X148033752Y-97881904D02*
X147938514Y-97929523D01*
X147938514Y-97929523D02*
X147795657Y-97929523D01*
X147795657Y-97929523D02*
X147700419Y-97881904D01*
X147700419Y-97881904D02*
X147652800Y-97834285D01*
X147652800Y-97834285D02*
X147605180Y-97739047D01*
X147605180Y-97739047D02*
X147605180Y-97358095D01*
X147605180Y-97358095D02*
X148605180Y-97358095D01*
X148605180Y-97358095D02*
X148605180Y-97691428D01*
X148605180Y-97691428D02*
X148557561Y-97786666D01*
X148557561Y-97786666D02*
X148509942Y-97834285D01*
X148509942Y-97834285D02*
X148414704Y-97881904D01*
X148414704Y-97881904D02*
X148319466Y-97881904D01*
X148319466Y-97881904D02*
X148224228Y-97834285D01*
X148224228Y-97834285D02*
X148176609Y-97786666D01*
X148176609Y-97786666D02*
X148128990Y-97691428D01*
X148128990Y-97691428D02*
X148128990Y-97358095D01*
X121404761Y-110550057D02*
X121309523Y-110502438D01*
X121309523Y-110502438D02*
X121214285Y-110407200D01*
X121214285Y-110407200D02*
X121071428Y-110264342D01*
X121071428Y-110264342D02*
X120976190Y-110216723D01*
X120976190Y-110216723D02*
X120880952Y-110216723D01*
X120928571Y-110454819D02*
X120833333Y-110407200D01*
X120833333Y-110407200D02*
X120738095Y-110311961D01*
X120738095Y-110311961D02*
X120690476Y-110121485D01*
X120690476Y-110121485D02*
X120690476Y-109788152D01*
X120690476Y-109788152D02*
X120738095Y-109597676D01*
X120738095Y-109597676D02*
X120833333Y-109502438D01*
X120833333Y-109502438D02*
X120928571Y-109454819D01*
X120928571Y-109454819D02*
X121119047Y-109454819D01*
X121119047Y-109454819D02*
X121214285Y-109502438D01*
X121214285Y-109502438D02*
X121309523Y-109597676D01*
X121309523Y-109597676D02*
X121357142Y-109788152D01*
X121357142Y-109788152D02*
X121357142Y-110121485D01*
X121357142Y-110121485D02*
X121309523Y-110311961D01*
X121309523Y-110311961D02*
X121214285Y-110407200D01*
X121214285Y-110407200D02*
X121119047Y-110454819D01*
X121119047Y-110454819D02*
X120928571Y-110454819D01*
X122309523Y-110454819D02*
X121738095Y-110454819D01*
X122023809Y-110454819D02*
X122023809Y-109454819D01*
X122023809Y-109454819D02*
X121928571Y-109597676D01*
X121928571Y-109597676D02*
X121833333Y-109692914D01*
X121833333Y-109692914D02*
X121738095Y-109740533D01*
X133064464Y-81261904D02*
X133873987Y-81261904D01*
X133873987Y-81261904D02*
X133969225Y-81214285D01*
X133969225Y-81214285D02*
X134016845Y-81166666D01*
X134016845Y-81166666D02*
X134064464Y-81071428D01*
X134064464Y-81071428D02*
X134064464Y-80880952D01*
X134064464Y-80880952D02*
X134016845Y-80785714D01*
X134016845Y-80785714D02*
X133969225Y-80738095D01*
X133969225Y-80738095D02*
X133873987Y-80690476D01*
X133873987Y-80690476D02*
X133064464Y-80690476D01*
X133159702Y-80261904D02*
X133112083Y-80214285D01*
X133112083Y-80214285D02*
X133064464Y-80119047D01*
X133064464Y-80119047D02*
X133064464Y-79880952D01*
X133064464Y-79880952D02*
X133112083Y-79785714D01*
X133112083Y-79785714D02*
X133159702Y-79738095D01*
X133159702Y-79738095D02*
X133254940Y-79690476D01*
X133254940Y-79690476D02*
X133350178Y-79690476D01*
X133350178Y-79690476D02*
X133493035Y-79738095D01*
X133493035Y-79738095D02*
X134064464Y-80309523D01*
X134064464Y-80309523D02*
X134064464Y-79690476D01*
X150166666Y-68184819D02*
X150166666Y-68899104D01*
X150166666Y-68899104D02*
X150119047Y-69041961D01*
X150119047Y-69041961D02*
X150023809Y-69137200D01*
X150023809Y-69137200D02*
X149880952Y-69184819D01*
X149880952Y-69184819D02*
X149785714Y-69184819D01*
X150595238Y-68280057D02*
X150642857Y-68232438D01*
X150642857Y-68232438D02*
X150738095Y-68184819D01*
X150738095Y-68184819D02*
X150976190Y-68184819D01*
X150976190Y-68184819D02*
X151071428Y-68232438D01*
X151071428Y-68232438D02*
X151119047Y-68280057D01*
X151119047Y-68280057D02*
X151166666Y-68375295D01*
X151166666Y-68375295D02*
X151166666Y-68470533D01*
X151166666Y-68470533D02*
X151119047Y-68613390D01*
X151119047Y-68613390D02*
X150547619Y-69184819D01*
X150547619Y-69184819D02*
X151166666Y-69184819D01*
X186338779Y-79501267D02*
X187054521Y-79501267D01*
X187054521Y-79501267D02*
X187197669Y-79548983D01*
X187197669Y-79548983D02*
X187293102Y-79644415D01*
X187293102Y-79644415D02*
X187340818Y-79787564D01*
X187340818Y-79787564D02*
X187340818Y-79882996D01*
X186338779Y-78546944D02*
X186338779Y-79024106D01*
X186338779Y-79024106D02*
X186815940Y-79071822D01*
X186815940Y-79071822D02*
X186768224Y-79024106D01*
X186768224Y-79024106D02*
X186720508Y-78928674D01*
X186720508Y-78928674D02*
X186720508Y-78690093D01*
X186720508Y-78690093D02*
X186768224Y-78594661D01*
X186768224Y-78594661D02*
X186815940Y-78546944D01*
X186815940Y-78546944D02*
X186911372Y-78499228D01*
X186911372Y-78499228D02*
X187149953Y-78499228D01*
X187149953Y-78499228D02*
X187245385Y-78546944D01*
X187245385Y-78546944D02*
X187293102Y-78594661D01*
X187293102Y-78594661D02*
X187340818Y-78690093D01*
X187340818Y-78690093D02*
X187340818Y-78928674D01*
X187340818Y-78928674D02*
X187293102Y-79024106D01*
X187293102Y-79024106D02*
X187245385Y-79071822D01*
X121165987Y-119953724D02*
X121165987Y-120669466D01*
X121165987Y-120669466D02*
X121118271Y-120812614D01*
X121118271Y-120812614D02*
X121022839Y-120908047D01*
X121022839Y-120908047D02*
X120879690Y-120955763D01*
X120879690Y-120955763D02*
X120784258Y-120955763D01*
X122168026Y-120955763D02*
X121595432Y-120955763D01*
X121881729Y-120955763D02*
X121881729Y-119953724D01*
X121881729Y-119953724D02*
X121786297Y-120096872D01*
X121786297Y-120096872D02*
X121690864Y-120192304D01*
X121690864Y-120192304D02*
X121595432Y-120240021D01*
X166468095Y-109124819D02*
X166468095Y-109934342D01*
X166468095Y-109934342D02*
X166515714Y-110029580D01*
X166515714Y-110029580D02*
X166563333Y-110077200D01*
X166563333Y-110077200D02*
X166658571Y-110124819D01*
X166658571Y-110124819D02*
X166849047Y-110124819D01*
X166849047Y-110124819D02*
X166944285Y-110077200D01*
X166944285Y-110077200D02*
X166991904Y-110029580D01*
X166991904Y-110029580D02*
X167039523Y-109934342D01*
X167039523Y-109934342D02*
X167039523Y-109124819D01*
X168039523Y-110124819D02*
X167468095Y-110124819D01*
X167753809Y-110124819D02*
X167753809Y-109124819D01*
X167753809Y-109124819D02*
X167658571Y-109267676D01*
X167658571Y-109267676D02*
X167563333Y-109362914D01*
X167563333Y-109362914D02*
X167468095Y-109410533D01*
%TO.C,R1*%
D38*
X123630000Y-89810000D02*
X126370000Y-89810000D01*
X126370000Y-96350000D01*
X123630000Y-96350000D01*
X123630000Y-89810000D01*
X125000000Y-97120000D02*
X125000000Y-96350000D01*
X125000000Y-89040000D02*
X125000000Y-89810000D01*
%TO.C,R2*%
X136650000Y-70130000D02*
X143190000Y-70130000D01*
X143190000Y-72870000D01*
X136650000Y-72870000D01*
X136650000Y-70130000D01*
X135880000Y-71500000D02*
X136650000Y-71500000D01*
X143960000Y-71500000D02*
X143190000Y-71500000D01*
%TO.C,J4*%
X191330000Y-113270000D02*
X191330000Y-118410000D01*
X191330000Y-110670000D02*
X191330000Y-112000000D01*
X190000000Y-110670000D02*
X191330000Y-110670000D01*
X188670000Y-118410000D02*
X191330000Y-118410000D01*
X188670000Y-113270000D02*
X191330000Y-113270000D01*
X188670000Y-113270000D02*
X188670000Y-118410000D01*
%TO.C,J3*%
X177170000Y-80390000D02*
X177170000Y-70170000D01*
X177170000Y-82990000D02*
X177170000Y-81660000D01*
X178500000Y-82990000D02*
X177170000Y-82990000D01*
X179830000Y-70170000D02*
X177170000Y-70170000D01*
X179830000Y-80390000D02*
X177170000Y-80390000D01*
X179830000Y-80390000D02*
X179830000Y-70170000D01*
%TO.C,A1*%
X141580000Y-92680000D02*
X152000000Y-92680000D01*
X141580000Y-100560000D02*
X141580000Y-92680000D01*
X144120000Y-87600000D02*
X144120000Y-92680000D01*
X144120000Y-105640000D02*
X144120000Y-100560000D01*
X144120000Y-105640000D02*
X187560000Y-105640000D01*
X146790000Y-90270000D02*
X146790000Y-87600000D01*
X146790000Y-102970000D02*
X146790000Y-105640000D01*
X152000000Y-92680000D02*
X152000000Y-100560000D01*
X152000000Y-100560000D02*
X141580000Y-100560000D01*
X182350000Y-87600000D02*
X144120000Y-87600000D01*
X182350000Y-90270000D02*
X146790000Y-90270000D01*
X182350000Y-90270000D02*
X182350000Y-87600000D01*
X182350000Y-90270000D02*
X184890000Y-90270000D01*
X184890000Y-90270000D02*
X184890000Y-87600000D01*
X184890000Y-102970000D02*
X146790000Y-102970000D01*
X184890000Y-102970000D02*
X184890000Y-105640000D01*
X187560000Y-87600000D02*
X184890000Y-87600000D01*
X187560000Y-105640000D02*
X187560000Y-87600000D01*
%TO.C,Q1*%
X122850000Y-107740000D02*
X133070000Y-107740000D01*
X122850000Y-109120000D02*
X133070000Y-109120000D01*
X122850000Y-112360000D02*
X122850000Y-107740000D01*
X126110000Y-107740000D02*
X126110000Y-109120000D01*
X129810000Y-107740000D02*
X129810000Y-109120000D01*
X133070000Y-107740000D02*
X133070000Y-112360000D01*
X133070000Y-112360000D02*
X122850000Y-112360000D01*
%TO.C,U2*%
D39*
X123550000Y-77010000D02*
X123550000Y-83610000D01*
X123550000Y-83610000D02*
X124500000Y-83610000D01*
X124500000Y-77010000D02*
X123550000Y-77010000D01*
X131500000Y-77010000D02*
X132450000Y-77010000D01*
X132450000Y-77010000D02*
X132450000Y-83610000D01*
X132450000Y-83610000D02*
X131500000Y-83610000D01*
D40*
X130820000Y-75310000D02*
G75*
G02*
X130580000Y-75310000I-120000J0D01*
G01*
X130580000Y-75310000D02*
G75*
G02*
X130820000Y-75310000I120000J0D01*
G01*
%TO.C,J2*%
D38*
X149170000Y-72770000D02*
X149170000Y-82990000D01*
X149170000Y-72770000D02*
X151830000Y-72770000D01*
X149170000Y-82990000D02*
X151830000Y-82990000D01*
X150500000Y-70170000D02*
X151830000Y-70170000D01*
X151830000Y-70170000D02*
X151830000Y-71500000D01*
X151830000Y-72770000D02*
X151830000Y-82990000D01*
%TO.C,J5*%
D39*
X188400000Y-72960000D02*
X195600000Y-72960000D01*
X188400000Y-83120000D02*
X188400000Y-72960000D01*
X195600000Y-72960000D02*
X196600000Y-72960000D01*
X195600000Y-83120000D02*
X188400000Y-83120000D01*
X195600000Y-83120000D02*
X195600000Y-72960000D01*
X196600000Y-72960000D02*
X196600000Y-83120000D01*
X196600000Y-83120000D02*
X195600000Y-83120000D01*
%TO.C,J1*%
X133080000Y-124600000D02*
X122920000Y-124600000D01*
X133080000Y-117400000D02*
X133080000Y-124600000D01*
X133080000Y-117400000D02*
X122920000Y-117400000D01*
X133080000Y-116400000D02*
X133080000Y-117400000D01*
X122920000Y-124600000D02*
X122920000Y-117400000D01*
X122920000Y-117400000D02*
X122920000Y-116400000D01*
X122920000Y-116400000D02*
X133080000Y-116400000D01*
%TO.C,U1*%
D38*
X169880000Y-110670000D02*
X168230000Y-110670000D01*
X166230000Y-110670000D02*
X164580000Y-110670000D01*
X164580000Y-110670000D02*
X164580000Y-120950000D01*
X169880000Y-120950000D02*
X169880000Y-110670000D01*
X164580000Y-120950000D02*
X169880000Y-120950000D01*
X168230000Y-110670000D02*
G75*
G02*
X166230000Y-110670000I-1000000J0D01*
G01*
%TD*%
D41*
X114000000Y-65000000D02*
X204000000Y-65000000D01*
X204000000Y-129500000D01*
X114000000Y-129500000D01*
X114000000Y-65000000D01*
M02*
